<svg width="202" height="191" viewBox="0 0 202 191" fill="none" xmlns="http://www.w3.org/2000/svg">
<rect width="202" height="191" rx="16" fill="#0198FC"/>
<path opacity="0.7" d="M16.56 101C16.4853 101 16.42 100.972 16.364 100.916C16.308 100.86 16.28 100.795 16.28 100.72L16.308 100.566L19.78 91.508C19.8547 91.3027 20.004 91.2 20.228 91.2H21.124C21.348 91.2 21.4973 91.3027 21.572 91.508L25.044 100.566L25.072 100.72C25.072 100.795 25.0393 100.86 24.974 100.916C24.918 100.972 24.8527 101 24.778 101H24.12C24.0267 101 23.9473 100.977 23.882 100.93C23.826 100.874 23.7887 100.818 23.77 100.762L22.986 98.746H18.352L17.582 100.762C17.5073 100.921 17.3907 101 17.232 101H16.56ZM18.758 97.584H22.594L20.676 92.558L18.758 97.584ZM28.9795 101.14C27.9995 101.14 27.2622 100.823 26.7675 100.188C26.2822 99.5533 26.0209 98.7507 25.9835 97.78L25.9695 97.36L25.9835 96.94C26.0209 95.9787 26.2869 95.1807 26.7815 94.546C27.2762 93.902 28.0089 93.58 28.9795 93.58C29.9502 93.58 30.7062 93.9253 31.2475 94.616V91.382C31.2475 91.2887 31.2755 91.214 31.3315 91.158C31.3969 91.0927 31.4762 91.06 31.5695 91.06H32.1995C32.2929 91.06 32.3675 91.0927 32.4235 91.158C32.4889 91.214 32.5215 91.2887 32.5215 91.382V100.678C32.5215 100.771 32.4889 100.851 32.4235 100.916C32.3675 100.972 32.2929 101 32.1995 101H31.5975C31.5042 101 31.4295 100.972 31.3735 100.916C31.3175 100.851 31.2895 100.771 31.2895 100.678V100.076C30.7575 100.785 29.9875 101.14 28.9795 101.14ZM29.2455 100.048C29.8989 100.048 30.3889 99.8333 30.7155 99.404C31.0422 98.9653 31.2195 98.4473 31.2475 97.85C31.2569 97.7473 31.2615 97.57 31.2615 97.318C31.2615 97.0567 31.2569 96.8747 31.2475 96.772C31.2289 96.2027 31.0469 95.7127 30.7015 95.302C30.3655 94.882 29.8802 94.672 29.2455 94.672C28.5735 94.672 28.0835 94.882 27.7755 95.302C27.4675 95.722 27.2995 96.2727 27.2715 96.954L27.2575 97.36C27.2575 99.152 27.9202 100.048 29.2455 100.048ZM37.124 101.14C36.48 101.14 35.934 101.037 35.486 100.832C35.0474 100.617 34.7207 100.375 34.506 100.104C34.2914 99.8333 34.184 99.6093 34.184 99.432C34.184 99.3387 34.2167 99.2687 34.282 99.222C34.3474 99.166 34.4174 99.138 34.492 99.138H35.08C35.136 99.138 35.178 99.1473 35.206 99.166C35.2434 99.1847 35.29 99.2267 35.346 99.292C35.5607 99.5533 35.7987 99.7587 36.06 99.908C36.3307 100.057 36.69 100.132 37.138 100.132C37.642 100.132 38.0434 100.039 38.342 99.852C38.65 99.6653 38.804 99.3947 38.804 99.04C38.804 98.8067 38.7387 98.62 38.608 98.48C38.4774 98.34 38.258 98.214 37.95 98.102C37.6514 97.99 37.2034 97.8687 36.606 97.738C35.794 97.5607 35.22 97.304 34.884 96.968C34.548 96.632 34.38 96.198 34.38 95.666C34.38 95.3207 34.4827 94.9893 34.688 94.672C34.8934 94.3453 35.1967 94.084 35.598 93.888C36.0087 93.6827 36.494 93.58 37.054 93.58C37.642 93.58 38.1414 93.678 38.552 93.874C38.972 94.07 39.2847 94.2987 39.49 94.56C39.7047 94.8213 39.812 95.0407 39.812 95.218C39.812 95.302 39.7794 95.372 39.714 95.428C39.658 95.484 39.588 95.512 39.504 95.512H38.972C38.8414 95.512 38.748 95.4607 38.692 95.358C38.5334 95.1807 38.398 95.0453 38.286 94.952C38.1834 94.8493 38.0294 94.7653 37.824 94.7C37.6187 94.6253 37.362 94.588 37.054 94.588C36.5967 94.588 36.2467 94.686 36.004 94.882C35.7614 95.0687 35.64 95.3207 35.64 95.638C35.64 95.834 35.6914 96.002 35.794 96.142C35.8967 96.2727 36.0927 96.3987 36.382 96.52C36.6714 96.632 37.1007 96.7487 37.67 96.87C38.5567 97.0567 39.182 97.3227 39.546 97.668C39.9194 98.0133 40.106 98.4567 40.106 98.998C40.106 99.3993 39.9894 99.7633 39.756 100.09C39.532 100.417 39.1914 100.673 38.734 100.86C38.286 101.047 37.7494 101.14 37.124 101.14Z" fill="#1D2328"/>
<path d="M16.528 131C16.432 131 16.352 130.968 16.288 130.904C16.224 130.829 16.192 130.749 16.192 130.664C16.192 130.611 16.1973 130.563 16.208 130.52L20.016 120.232C20.048 120.115 20.112 120.013 20.208 119.928C20.304 119.843 20.4373 119.8 20.608 119.8H22.656C22.8267 119.8 22.96 119.843 23.056 119.928C23.152 120.013 23.216 120.115 23.248 120.232L27.056 130.52C27.0667 130.563 27.072 130.611 27.072 130.664C27.072 130.749 27.04 130.829 26.976 130.904C26.912 130.968 26.832 131 26.736 131H25.072C24.912 131 24.7947 130.963 24.72 130.888C24.6453 130.813 24.5973 130.744 24.576 130.68L23.888 128.888H19.376L18.688 130.68C18.6667 130.744 18.6187 130.813 18.544 130.888C18.4693 130.963 18.352 131 18.192 131H16.528ZM19.968 126.824H23.28L21.632 122.216L19.968 126.824ZM31.2679 131.16C30.7345 131.16 30.2599 131.075 29.8439 130.904C29.4279 130.723 29.0759 130.467 28.7879 130.136C28.4999 129.795 28.2812 129.395 28.1319 128.936C27.9825 128.467 27.8919 127.949 27.8599 127.384C27.8492 127.181 27.8439 127 27.8439 126.84C27.8439 126.669 27.8492 126.488 27.8599 126.296C27.8812 125.741 27.9665 125.235 28.1159 124.776C28.2759 124.317 28.4945 123.923 28.7719 123.592C29.0599 123.251 29.4119 122.989 29.8279 122.808C30.2545 122.616 30.7345 122.52 31.2679 122.52C31.8225 122.52 32.2972 122.616 32.6919 122.808C33.0865 122.989 33.4119 123.229 33.6679 123.528V120.04C33.6679 119.923 33.7052 119.827 33.7799 119.752C33.8545 119.677 33.9505 119.64 34.0679 119.64H35.7159C35.8225 119.64 35.9132 119.677 35.9879 119.752C36.0625 119.827 36.0999 119.923 36.0999 120.04V130.6C36.0999 130.717 36.0625 130.813 35.9879 130.888C35.9132 130.963 35.8225 131 35.7159 131H34.1799C34.0732 131 33.9825 130.963 33.9079 130.888C33.8332 130.813 33.7959 130.717 33.7959 130.6V130.056C33.5292 130.376 33.1932 130.643 32.7879 130.856C32.3825 131.059 31.8759 131.16 31.2679 131.16ZM32.0039 129.24C32.3985 129.24 32.7132 129.149 32.9479 128.968C33.1932 128.787 33.3692 128.557 33.4759 128.28C33.5932 128.003 33.6572 127.704 33.6679 127.384C33.6892 127.181 33.6999 126.979 33.6999 126.776C33.6999 126.573 33.6892 126.376 33.6679 126.184C33.6572 125.885 33.5932 125.608 33.4759 125.352C33.3585 125.085 33.1772 124.867 32.9319 124.696C32.6972 124.525 32.3879 124.44 32.0039 124.44C31.5985 124.44 31.2785 124.531 31.0439 124.712C30.8092 124.883 30.6385 125.112 30.5319 125.4C30.4359 125.688 30.3772 126.003 30.3559 126.344C30.3239 126.675 30.3239 127.005 30.3559 127.336C30.3772 127.677 30.4359 127.992 30.5319 128.28C30.6385 128.568 30.8092 128.803 31.0439 128.984C31.2785 129.155 31.5985 129.24 32.0039 129.24ZM41.413 131.16C40.7517 131.16 40.181 131.085 39.701 130.936C39.2317 130.776 38.8477 130.584 38.549 130.36C38.261 130.136 38.0423 129.912 37.893 129.688C37.7543 129.453 37.6797 129.256 37.669 129.096C37.6583 128.979 37.6957 128.883 37.781 128.808C37.8663 128.733 37.9517 128.696 38.037 128.696H39.589C39.621 128.696 39.653 128.701 39.685 128.712C39.717 128.723 39.749 128.749 39.781 128.792C39.9197 128.888 40.0637 129 40.213 129.128C40.3623 129.245 40.533 129.347 40.725 129.432C40.9277 129.517 41.1783 129.56 41.477 129.56C41.829 129.56 42.1277 129.491 42.373 129.352C42.6183 129.203 42.741 128.995 42.741 128.728C42.741 128.536 42.6823 128.376 42.565 128.248C42.4583 128.12 42.2503 128.003 41.941 127.896C41.6317 127.789 41.173 127.672 40.565 127.544C39.989 127.416 39.4983 127.245 39.093 127.032C38.6877 126.819 38.3837 126.552 38.181 126.232C37.9783 125.901 37.877 125.507 37.877 125.048C37.877 124.632 38.005 124.232 38.261 123.848C38.5277 123.464 38.917 123.149 39.429 122.904C39.941 122.648 40.581 122.52 41.349 122.52C41.9357 122.52 42.4477 122.595 42.885 122.744C43.333 122.883 43.7063 123.064 44.005 123.288C44.3037 123.501 44.5277 123.725 44.677 123.96C44.837 124.184 44.9223 124.381 44.933 124.552C44.9437 124.659 44.9117 124.749 44.837 124.824C44.7623 124.899 44.677 124.936 44.581 124.936H43.157C43.1037 124.936 43.0557 124.931 43.013 124.92C42.9703 124.899 42.933 124.872 42.901 124.84C42.773 124.755 42.6397 124.659 42.501 124.552C42.373 124.435 42.2183 124.333 42.037 124.248C41.8557 124.163 41.621 124.12 41.333 124.12C40.981 124.12 40.709 124.2 40.517 124.36C40.3357 124.509 40.245 124.701 40.245 124.936C40.245 125.085 40.293 125.224 40.389 125.352C40.485 125.48 40.6823 125.597 40.981 125.704C41.2797 125.811 41.733 125.923 42.341 126.04C43.0663 126.168 43.6423 126.36 44.069 126.616C44.4957 126.872 44.7997 127.171 44.981 127.512C45.173 127.843 45.269 128.2 45.269 128.584C45.269 129.085 45.1197 129.533 44.821 129.928C44.5223 130.312 44.085 130.616 43.509 130.84C42.9437 131.053 42.245 131.16 41.413 131.16ZM49.4166 127.816C49.3313 127.816 49.2566 127.784 49.1926 127.72C49.1286 127.656 49.0966 127.581 49.0966 127.496C49.0966 127.421 49.0966 127.347 49.0966 127.272C49.0966 127.197 49.0966 127.123 49.0966 127.048C49.15 126.653 49.2673 126.301 49.4486 125.992C49.6406 125.672 49.8593 125.379 50.1046 125.112C50.3606 124.845 50.6113 124.6 50.8566 124.376C51.102 124.141 51.31 123.907 51.4806 123.672C51.6513 123.437 51.742 123.203 51.7526 122.968C51.7846 122.691 51.7313 122.461 51.5926 122.28C51.4646 122.088 51.2833 121.944 51.0486 121.848C50.8246 121.741 50.5846 121.688 50.3286 121.688C49.8593 121.688 49.4806 121.805 49.1926 122.04C48.9153 122.264 48.7233 122.611 48.6166 123.08C48.574 123.197 48.5153 123.288 48.4406 123.352C48.366 123.416 48.2646 123.448 48.1366 123.448H46.4726C46.3766 123.448 46.2913 123.411 46.2166 123.336C46.142 123.261 46.1046 123.165 46.1046 123.048C46.1153 122.621 46.2166 122.205 46.4086 121.8C46.6006 121.395 46.8833 121.032 47.2566 120.712C47.63 120.381 48.0833 120.12 48.6166 119.928C49.15 119.736 49.7686 119.64 50.4726 119.64C51.2406 119.64 51.8753 119.736 52.3766 119.928C52.8886 120.12 53.294 120.371 53.5926 120.68C53.902 120.979 54.1206 121.304 54.2486 121.656C54.3766 121.997 54.43 122.323 54.4086 122.632C54.398 123.027 54.3126 123.384 54.1526 123.704C54.0033 124.013 53.8166 124.301 53.5926 124.568C53.3793 124.835 53.15 125.096 52.9046 125.352C52.67 125.597 52.4566 125.848 52.2646 126.104C52.0833 126.36 51.95 126.627 51.8646 126.904C51.8433 126.989 51.822 127.075 51.8006 127.16C51.79 127.235 51.7793 127.315 51.7686 127.4C51.7153 127.539 51.6566 127.645 51.5926 127.72C51.5286 127.784 51.4326 127.816 51.3046 127.816H49.4166ZM49.4166 131C49.2993 131 49.2033 130.963 49.1286 130.888C49.054 130.813 49.0166 130.717 49.0166 130.6V129C49.0166 128.893 49.054 128.803 49.1286 128.728C49.2033 128.643 49.2993 128.6 49.4166 128.6H51.2086C51.3153 128.6 51.406 128.643 51.4806 128.728C51.566 128.803 51.6086 128.893 51.6086 129V130.6C51.6086 130.717 51.566 130.813 51.4806 130.888C51.406 130.963 51.3153 131 51.2086 131H49.4166ZM60.0371 131C59.9305 131 59.8345 130.963 59.7491 130.888C59.6745 130.813 59.6371 130.717 59.6371 130.6V120.2C59.6371 120.083 59.6745 119.987 59.7491 119.912C59.8345 119.837 59.9305 119.8 60.0371 119.8H61.5251C61.6851 119.8 61.8025 119.843 61.8771 119.928C61.9625 120.013 62.0211 120.077 62.0531 120.12L64.9971 125.544L67.9731 120.12C67.9945 120.077 68.0425 120.013 68.1171 119.928C68.2025 119.843 68.3251 119.8 68.4851 119.8H69.9731C70.0905 119.8 70.1865 119.837 70.2611 119.912C70.3358 119.987 70.3731 120.083 70.3731 120.2V130.6C70.3731 130.717 70.3358 130.813 70.2611 130.888C70.1865 130.963 70.0905 131 69.9731 131H68.3411C68.2345 131 68.1438 130.963 68.0691 130.888C67.9945 130.813 67.9571 130.717 67.9571 130.6V124.136L65.9251 127.944C65.8718 128.04 65.8025 128.125 65.7171 128.2C65.6318 128.275 65.5198 128.312 65.3811 128.312H64.6291C64.4905 128.312 64.3785 128.275 64.2931 128.2C64.2078 128.125 64.1385 128.04 64.0851 127.944L62.0531 124.136V130.6C62.0531 130.717 62.0158 130.813 61.9411 130.888C61.8665 130.963 61.7758 131 61.6691 131H60.0371ZM76.2825 131.16C75.0558 131.16 74.0798 130.819 73.3545 130.136C72.6398 129.453 72.2612 128.461 72.2185 127.16C72.2185 127.075 72.2185 126.963 72.2185 126.824C72.2185 126.675 72.2185 126.557 72.2185 126.472C72.2612 125.651 72.4478 124.947 72.7785 124.36C73.1092 123.763 73.5732 123.309 74.1705 123C74.7678 122.68 75.4665 122.52 76.2665 122.52C77.1625 122.52 77.9092 122.707 78.5065 123.08C79.1145 123.443 79.5678 123.944 79.8665 124.584C80.1758 125.213 80.3305 125.939 80.3305 126.76V127.128C80.3305 127.235 80.2878 127.325 80.2025 127.4C80.1278 127.475 80.0372 127.512 79.9305 127.512H74.6985C74.6985 127.523 74.6985 127.544 74.6985 127.576C74.6985 127.597 74.6985 127.619 74.6985 127.64C74.7092 127.981 74.7732 128.296 74.8905 128.584C75.0185 128.861 75.1945 129.085 75.4185 129.256C75.6532 129.427 75.9305 129.512 76.2505 129.512C76.5172 129.512 76.7358 129.475 76.9065 129.4C77.0772 129.325 77.2158 129.235 77.3225 129.128C77.4398 129.021 77.5252 128.931 77.5785 128.856C77.6745 128.749 77.7492 128.685 77.8025 128.664C77.8665 128.632 77.9625 128.616 78.0905 128.616H79.7545C79.8612 128.616 79.9465 128.648 80.0105 128.712C80.0852 128.765 80.1172 128.845 80.1065 128.952C80.0958 129.123 80.0052 129.336 79.8345 129.592C79.6745 129.837 79.4345 130.083 79.1145 130.328C78.7945 130.563 78.3945 130.76 77.9145 130.92C77.4452 131.08 76.9012 131.16 76.2825 131.16ZM74.6985 126.056H77.8345V126.024C77.8345 125.64 77.7705 125.309 77.6425 125.032C77.5252 124.744 77.3492 124.52 77.1145 124.36C76.8798 124.2 76.5972 124.12 76.2665 124.12C75.9358 124.12 75.6532 124.2 75.4185 124.36C75.1838 124.52 75.0025 124.744 74.8745 125.032C74.7572 125.309 74.6985 125.64 74.6985 126.024V126.056ZM85.2099 131.16C84.5485 131.16 83.9779 131.085 83.4979 130.936C83.0285 130.776 82.6445 130.584 82.3459 130.36C82.0579 130.136 81.8392 129.912 81.6899 129.688C81.5512 129.453 81.4765 129.256 81.4659 129.096C81.4552 128.979 81.4925 128.883 81.5779 128.808C81.6632 128.733 81.7485 128.696 81.8339 128.696H83.3859C83.4179 128.696 83.4499 128.701 83.4819 128.712C83.5139 128.723 83.5459 128.749 83.5779 128.792C83.7165 128.888 83.8605 129 84.0099 129.128C84.1592 129.245 84.3299 129.347 84.5219 129.432C84.7245 129.517 84.9752 129.56 85.2739 129.56C85.6259 129.56 85.9245 129.491 86.1699 129.352C86.4152 129.203 86.5379 128.995 86.5379 128.728C86.5379 128.536 86.4792 128.376 86.3619 128.248C86.2552 128.12 86.0472 128.003 85.7379 127.896C85.4285 127.789 84.9699 127.672 84.3619 127.544C83.7859 127.416 83.2952 127.245 82.8899 127.032C82.4845 126.819 82.1805 126.552 81.9779 126.232C81.7752 125.901 81.6739 125.507 81.6739 125.048C81.6739 124.632 81.8019 124.232 82.0579 123.848C82.3245 123.464 82.7139 123.149 83.2259 122.904C83.7379 122.648 84.3779 122.52 85.1459 122.52C85.7325 122.52 86.2445 122.595 86.6819 122.744C87.1299 122.883 87.5032 123.064 87.8019 123.288C88.1005 123.501 88.3245 123.725 88.4739 123.96C88.6339 124.184 88.7192 124.381 88.7299 124.552C88.7405 124.659 88.7085 124.749 88.6339 124.824C88.5592 124.899 88.4739 124.936 88.3779 124.936H86.9539C86.9005 124.936 86.8525 124.931 86.8099 124.92C86.7672 124.899 86.7299 124.872 86.6979 124.84C86.5699 124.755 86.4365 124.659 86.2979 124.552C86.1699 124.435 86.0152 124.333 85.8339 124.248C85.6525 124.163 85.4179 124.12 85.1299 124.12C84.7779 124.12 84.5059 124.2 84.3139 124.36C84.1325 124.509 84.0419 124.701 84.0419 124.936C84.0419 125.085 84.0899 125.224 84.1859 125.352C84.2819 125.48 84.4792 125.597 84.7779 125.704C85.0765 125.811 85.5299 125.923 86.1379 126.04C86.8632 126.168 87.4392 126.36 87.8659 126.616C88.2925 126.872 88.5965 127.171 88.7779 127.512C88.9699 127.843 89.0659 128.2 89.0659 128.584C89.0659 129.085 88.9165 129.533 88.6179 129.928C88.3192 130.312 87.8819 130.616 87.3059 130.84C86.7405 131.053 86.0419 131.16 85.2099 131.16ZM93.8818 131.16C93.2204 131.16 92.6498 131.085 92.1698 130.936C91.7004 130.776 91.3164 130.584 91.0178 130.36C90.7298 130.136 90.5111 129.912 90.3618 129.688C90.2231 129.453 90.1484 129.256 90.1378 129.096C90.1271 128.979 90.1644 128.883 90.2498 128.808C90.3351 128.733 90.4204 128.696 90.5058 128.696H92.0578C92.0898 128.696 92.1218 128.701 92.1538 128.712C92.1858 128.723 92.2178 128.749 92.2498 128.792C92.3884 128.888 92.5324 129 92.6818 129.128C92.8311 129.245 93.0018 129.347 93.1938 129.432C93.3964 129.517 93.6471 129.56 93.9458 129.56C94.2978 129.56 94.5964 129.491 94.8418 129.352C95.0871 129.203 95.2098 128.995 95.2098 128.728C95.2098 128.536 95.1511 128.376 95.0338 128.248C94.9271 128.12 94.7191 128.003 94.4098 127.896C94.1004 127.789 93.6418 127.672 93.0338 127.544C92.4578 127.416 91.9671 127.245 91.5618 127.032C91.1564 126.819 90.8524 126.552 90.6497 126.232C90.4471 125.901 90.3458 125.507 90.3458 125.048C90.3458 124.632 90.4738 124.232 90.7298 123.848C90.9964 123.464 91.3858 123.149 91.8978 122.904C92.4098 122.648 93.0498 122.52 93.8177 122.52C94.4044 122.52 94.9164 122.595 95.3538 122.744C95.8018 122.883 96.1751 123.064 96.4738 123.288C96.7724 123.501 96.9964 123.725 97.1458 123.96C97.3058 124.184 97.3911 124.381 97.4018 124.552C97.4124 124.659 97.3804 124.749 97.3058 124.824C97.2311 124.899 97.1458 124.936 97.0498 124.936H95.6258C95.5724 124.936 95.5244 124.931 95.4818 124.92C95.4391 124.899 95.4018 124.872 95.3698 124.84C95.2418 124.755 95.1084 124.659 94.9698 124.552C94.8418 124.435 94.6871 124.333 94.5058 124.248C94.3244 124.163 94.0898 124.12 93.8018 124.12C93.4498 124.12 93.1778 124.2 92.9858 124.36C92.8044 124.509 92.7138 124.701 92.7138 124.936C92.7138 125.085 92.7618 125.224 92.8578 125.352C92.9538 125.48 93.1511 125.597 93.4498 125.704C93.7484 125.811 94.2018 125.923 94.8098 126.04C95.5351 126.168 96.1111 126.36 96.5378 126.616C96.9644 126.872 97.2684 127.171 97.4498 127.512C97.6418 127.843 97.7378 128.2 97.7378 128.584C97.7378 129.085 97.5884 129.533 97.2898 129.928C96.9911 130.312 96.5538 130.616 95.9778 130.84C95.4124 131.053 94.7138 131.16 93.8818 131.16ZM101.722 131.16C101.156 131.16 100.65 131.053 100.202 130.84C99.7536 130.616 99.3963 130.317 99.1296 129.944C98.863 129.571 98.7296 129.155 98.7296 128.696C98.7296 127.939 99.0336 127.341 99.6416 126.904C100.26 126.467 101.071 126.168 102.074 126.008L104.17 125.704V125.416C104.17 125 104.074 124.68 103.882 124.456C103.69 124.232 103.354 124.12 102.874 124.12C102.522 124.12 102.239 124.189 102.026 124.328C101.812 124.467 101.647 124.648 101.53 124.872C101.444 125.011 101.322 125.08 101.162 125.08H99.6416C99.5243 125.08 99.4336 125.048 99.3696 124.984C99.3056 124.909 99.279 124.824 99.2896 124.728C99.2896 124.547 99.359 124.333 99.4976 124.088C99.6363 123.843 99.8496 123.603 100.138 123.368C100.426 123.123 100.794 122.92 101.242 122.76C101.69 122.6 102.239 122.52 102.89 122.52C103.562 122.52 104.138 122.6 104.618 122.76C105.098 122.92 105.482 123.144 105.77 123.432C106.058 123.72 106.271 124.056 106.41 124.44C106.548 124.813 106.618 125.219 106.618 125.656V130.6C106.618 130.717 106.58 130.813 106.506 130.888C106.431 130.963 106.335 131 106.218 131H104.65C104.543 131 104.452 130.963 104.378 130.888C104.303 130.813 104.266 130.717 104.266 130.6V130.008C104.127 130.211 103.94 130.403 103.706 130.584C103.471 130.755 103.188 130.893 102.858 131C102.538 131.107 102.159 131.16 101.722 131.16ZM102.362 129.496C102.714 129.496 103.028 129.421 103.306 129.272C103.583 129.123 103.802 128.893 103.962 128.584C104.122 128.275 104.202 127.885 104.202 127.416V127.144L102.714 127.384C102.138 127.48 101.716 127.624 101.45 127.816C101.183 128.008 101.05 128.243 101.05 128.52C101.05 128.723 101.108 128.899 101.226 129.048C101.354 129.197 101.519 129.309 101.722 129.384C101.924 129.459 102.138 129.496 102.362 129.496ZM112.459 134.52C111.67 134.52 111.014 134.413 110.491 134.2C109.968 133.997 109.552 133.747 109.243 133.448C108.944 133.16 108.731 132.872 108.603 132.584C108.475 132.296 108.406 132.072 108.395 131.912C108.384 131.795 108.422 131.699 108.507 131.624C108.592 131.549 108.688 131.512 108.795 131.512H110.507C110.603 131.512 110.683 131.533 110.747 131.576C110.822 131.629 110.88 131.715 110.923 131.832C110.976 131.96 111.051 132.093 111.147 132.232C111.243 132.381 111.387 132.504 111.579 132.6C111.782 132.696 112.048 132.744 112.379 132.744C112.752 132.744 113.062 132.691 113.307 132.584C113.552 132.477 113.734 132.296 113.851 132.04C113.979 131.784 114.043 131.437 114.043 131V129.928C113.787 130.205 113.462 130.435 113.067 130.616C112.683 130.797 112.208 130.888 111.643 130.888C111.088 130.888 110.598 130.803 110.171 130.632C109.755 130.451 109.408 130.2 109.131 129.88C108.854 129.549 108.64 129.155 108.491 128.696C108.342 128.237 108.256 127.72 108.235 127.144C108.224 126.856 108.224 126.573 108.235 126.296C108.256 125.741 108.342 125.235 108.491 124.776C108.64 124.317 108.854 123.923 109.131 123.592C109.408 123.251 109.755 122.989 110.171 122.808C110.598 122.616 111.088 122.52 111.643 122.52C112.23 122.52 112.731 122.632 113.147 122.856C113.563 123.08 113.904 123.357 114.171 123.688V123.08C114.171 122.973 114.208 122.883 114.283 122.808C114.358 122.723 114.448 122.68 114.555 122.68H116.123C116.23 122.68 116.32 122.723 116.395 122.808C116.48 122.883 116.523 122.973 116.523 123.08L116.539 130.776C116.539 131.576 116.384 132.253 116.075 132.808C115.766 133.363 115.307 133.784 114.699 134.072C114.102 134.371 113.355 134.52 112.459 134.52ZM112.379 129.016C112.763 129.016 113.072 128.931 113.307 128.76C113.552 128.579 113.734 128.355 113.851 128.088C113.968 127.811 114.032 127.523 114.043 127.224C114.054 127.107 114.059 126.941 114.059 126.728C114.059 126.504 114.054 126.333 114.043 126.216C114.032 125.917 113.968 125.635 113.851 125.368C113.734 125.091 113.552 124.867 113.307 124.696C113.072 124.525 112.763 124.44 112.379 124.44C111.974 124.44 111.654 124.531 111.419 124.712C111.184 124.883 111.014 125.112 110.907 125.4C110.8 125.688 110.736 126.003 110.715 126.344C110.704 126.6 110.704 126.851 110.715 127.096C110.736 127.448 110.8 127.768 110.907 128.056C111.014 128.344 111.184 128.579 111.419 128.76C111.654 128.931 111.974 129.016 112.379 129.016ZM122.267 131.16C121.04 131.16 120.064 130.819 119.339 130.136C118.624 129.453 118.246 128.461 118.203 127.16C118.203 127.075 118.203 126.963 118.203 126.824C118.203 126.675 118.203 126.557 118.203 126.472C118.246 125.651 118.432 124.947 118.763 124.36C119.094 123.763 119.558 123.309 120.155 123C120.752 122.68 121.451 122.52 122.251 122.52C123.147 122.52 123.894 122.707 124.491 123.08C125.099 123.443 125.552 123.944 125.851 124.584C126.16 125.213 126.315 125.939 126.315 126.76V127.128C126.315 127.235 126.272 127.325 126.187 127.4C126.112 127.475 126.022 127.512 125.915 127.512H120.683C120.683 127.523 120.683 127.544 120.683 127.576C120.683 127.597 120.683 127.619 120.683 127.64C120.694 127.981 120.758 128.296 120.875 128.584C121.003 128.861 121.179 129.085 121.403 129.256C121.638 129.427 121.915 129.512 122.235 129.512C122.502 129.512 122.72 129.475 122.891 129.4C123.062 129.325 123.2 129.235 123.307 129.128C123.424 129.021 123.51 128.931 123.563 128.856C123.659 128.749 123.734 128.685 123.787 128.664C123.851 128.632 123.947 128.616 124.075 128.616H125.739C125.846 128.616 125.931 128.648 125.995 128.712C126.07 128.765 126.102 128.845 126.091 128.952C126.08 129.123 125.99 129.336 125.819 129.592C125.659 129.837 125.419 130.083 125.099 130.328C124.779 130.563 124.379 130.76 123.899 130.92C123.43 131.08 122.886 131.16 122.267 131.16ZM120.683 126.056H123.819V126.024C123.819 125.64 123.755 125.309 123.627 125.032C123.51 124.744 123.334 124.52 123.099 124.36C122.864 124.2 122.582 124.12 122.251 124.12C121.92 124.12 121.638 124.2 121.403 124.36C121.168 124.52 120.987 124.744 120.859 125.032C120.742 125.309 120.683 125.64 120.683 126.024V126.056ZM131.194 131.16C130.533 131.16 129.962 131.085 129.482 130.936C129.013 130.776 128.629 130.584 128.33 130.36C128.042 130.136 127.824 129.912 127.674 129.688C127.536 129.453 127.461 129.256 127.45 129.096C127.44 128.979 127.477 128.883 127.562 128.808C127.648 128.733 127.733 128.696 127.818 128.696H129.37C129.402 128.696 129.434 128.701 129.466 128.712C129.498 128.723 129.53 128.749 129.562 128.792C129.701 128.888 129.845 129 129.994 129.128C130.144 129.245 130.314 129.347 130.506 129.432C130.709 129.517 130.96 129.56 131.258 129.56C131.61 129.56 131.909 129.491 132.154 129.352C132.4 129.203 132.522 128.995 132.522 128.728C132.522 128.536 132.464 128.376 132.346 128.248C132.24 128.12 132.032 128.003 131.722 127.896C131.413 127.789 130.954 127.672 130.346 127.544C129.77 127.416 129.28 127.245 128.874 127.032C128.469 126.819 128.165 126.552 127.962 126.232C127.76 125.901 127.658 125.507 127.658 125.048C127.658 124.632 127.786 124.232 128.042 123.848C128.309 123.464 128.698 123.149 129.21 122.904C129.722 122.648 130.362 122.52 131.13 122.52C131.717 122.52 132.229 122.595 132.666 122.744C133.114 122.883 133.488 123.064 133.786 123.288C134.085 123.501 134.309 123.725 134.458 123.96C134.618 124.184 134.704 124.381 134.714 124.552C134.725 124.659 134.693 124.749 134.618 124.824C134.544 124.899 134.458 124.936 134.362 124.936H132.938C132.885 124.936 132.837 124.931 132.794 124.92C132.752 124.899 132.714 124.872 132.682 124.84C132.554 124.755 132.421 124.659 132.282 124.552C132.154 124.435 132 124.333 131.818 124.248C131.637 124.163 131.402 124.12 131.114 124.12C130.762 124.12 130.49 124.2 130.298 124.36C130.117 124.509 130.026 124.701 130.026 124.936C130.026 125.085 130.074 125.224 130.17 125.352C130.266 125.48 130.464 125.597 130.762 125.704C131.061 125.811 131.514 125.923 132.122 126.04C132.848 126.168 133.424 126.36 133.85 126.616C134.277 126.872 134.581 127.171 134.762 127.512C134.954 127.843 135.05 128.2 135.05 128.584C135.05 129.085 134.901 129.533 134.602 129.928C134.304 130.312 133.866 130.616 133.29 130.84C132.725 131.053 132.026 131.16 131.194 131.16ZM141.164 131C141.046 131 140.95 130.963 140.876 130.888C140.801 130.813 140.764 130.717 140.764 130.6V124.568H139.516C139.398 124.568 139.302 124.531 139.228 124.456C139.153 124.381 139.116 124.285 139.116 124.168V123.08C139.116 122.963 139.153 122.867 139.228 122.792C139.302 122.717 139.398 122.68 139.516 122.68H140.764V122.104C140.764 121.421 140.892 120.861 141.148 120.424C141.404 119.987 141.777 119.667 142.268 119.464C142.758 119.261 143.361 119.16 144.076 119.16H145.244C145.361 119.16 145.457 119.197 145.532 119.272C145.606 119.347 145.644 119.443 145.644 119.56V120.648C145.644 120.765 145.606 120.861 145.532 120.936C145.457 121.011 145.361 121.048 145.244 121.048H144.172C143.777 121.048 143.5 121.144 143.34 121.336C143.19 121.528 143.116 121.811 143.116 122.184V122.68H145.084C145.201 122.68 145.297 122.717 145.372 122.792C145.446 122.867 145.484 122.963 145.484 123.08V124.168C145.484 124.285 145.446 124.381 145.372 124.456C145.297 124.531 145.201 124.568 145.084 124.568H143.116V130.6C143.116 130.717 143.078 130.813 143.004 130.888C142.929 130.963 142.838 131 142.732 131H141.164ZM147.08 131C146.973 131 146.882 130.963 146.808 130.888C146.733 130.813 146.696 130.717 146.696 130.6V123.08C146.696 122.973 146.733 122.883 146.808 122.808C146.882 122.723 146.973 122.68 147.08 122.68H148.648C148.754 122.68 148.845 122.723 148.92 122.808C149.005 122.883 149.048 122.973 149.048 123.08V123.72C149.314 123.389 149.64 123.133 150.024 122.952C150.418 122.771 150.872 122.68 151.384 122.68H152.072C152.178 122.68 152.269 122.717 152.344 122.792C152.418 122.867 152.456 122.963 152.456 123.08V124.456C152.456 124.573 152.418 124.669 152.344 124.744C152.269 124.819 152.178 124.856 152.072 124.856H150.664C150.194 124.856 149.826 124.989 149.56 125.256C149.293 125.512 149.16 125.88 149.16 126.36V130.6C149.16 130.717 149.122 130.813 149.048 130.888C148.973 130.963 148.877 131 148.76 131H147.08ZM157.363 131.16C156.478 131.16 155.736 131.016 155.139 130.728C154.542 130.429 154.083 130.008 153.763 129.464C153.454 128.92 153.283 128.285 153.251 127.56C153.24 127.347 153.235 127.107 153.235 126.84C153.235 126.563 153.24 126.323 153.251 126.12C153.283 125.384 153.464 124.749 153.795 124.216C154.126 123.672 154.59 123.256 155.187 122.968C155.784 122.669 156.51 122.52 157.363 122.52C158.206 122.52 158.926 122.669 159.523 122.968C160.12 123.256 160.584 123.672 160.915 124.216C161.246 124.749 161.427 125.384 161.459 126.12C161.48 126.323 161.491 126.563 161.491 126.84C161.491 127.107 161.48 127.347 161.459 127.56C161.427 128.285 161.251 128.92 160.931 129.464C160.622 130.008 160.168 130.429 159.571 130.728C158.974 131.016 158.238 131.16 157.363 131.16ZM157.363 129.4C157.886 129.4 158.28 129.24 158.547 128.92C158.814 128.589 158.958 128.109 158.979 127.48C158.99 127.32 158.995 127.107 158.995 126.84C158.995 126.573 158.99 126.36 158.979 126.2C158.958 125.581 158.814 125.107 158.547 124.776C158.28 124.445 157.886 124.28 157.363 124.28C156.84 124.28 156.44 124.445 156.163 124.776C155.896 125.107 155.752 125.581 155.731 126.2C155.72 126.36 155.715 126.573 155.715 126.84C155.715 127.107 155.72 127.32 155.731 127.48C155.752 128.109 155.896 128.589 156.163 128.92C156.44 129.24 156.84 129.4 157.363 129.4ZM163.548 131C163.442 131 163.351 130.963 163.276 130.888C163.202 130.813 163.164 130.717 163.164 130.6V123.08C163.164 122.963 163.202 122.867 163.276 122.792C163.351 122.717 163.442 122.68 163.548 122.68H165.036C165.143 122.68 165.234 122.717 165.308 122.792C165.394 122.867 165.436 122.963 165.436 123.08V123.624C165.65 123.325 165.943 123.069 166.316 122.856C166.7 122.643 167.154 122.531 167.676 122.52C168.914 122.499 169.762 122.968 170.22 123.928C170.466 123.512 170.818 123.176 171.276 122.92C171.746 122.653 172.258 122.52 172.812 122.52C173.367 122.52 173.868 122.648 174.316 122.904C174.764 123.149 175.116 123.533 175.372 124.056C175.639 124.568 175.772 125.229 175.772 126.04V130.6C175.772 130.717 175.735 130.813 175.66 130.888C175.586 130.963 175.495 131 175.388 131H173.804C173.698 131 173.607 130.963 173.532 130.888C173.458 130.813 173.42 130.717 173.42 130.6V126.168C173.42 125.731 173.356 125.389 173.228 125.144C173.1 124.888 172.93 124.707 172.716 124.6C172.514 124.493 172.284 124.44 172.028 124.44C171.804 124.44 171.586 124.493 171.372 124.6C171.17 124.707 170.999 124.888 170.86 125.144C170.732 125.389 170.668 125.731 170.668 126.168V130.6C170.668 130.717 170.631 130.813 170.556 130.888C170.482 130.963 170.386 131 170.268 131H168.7C168.583 131 168.487 130.963 168.412 130.888C168.338 130.813 168.3 130.717 168.3 130.6V126.168C168.3 125.731 168.236 125.389 168.108 125.144C167.98 124.888 167.81 124.707 167.596 124.6C167.394 124.493 167.17 124.44 166.924 124.44C166.7 124.44 166.482 124.499 166.268 124.616C166.055 124.723 165.879 124.899 165.74 125.144C165.612 125.389 165.548 125.725 165.548 126.152V130.6C165.548 130.717 165.511 130.813 165.436 130.888C165.362 130.963 165.271 131 165.164 131H163.548ZM21.632 153.16C20.6613 153.16 19.824 153 19.12 152.68C18.416 152.36 17.8667 151.88 17.472 151.24C17.0773 150.589 16.864 149.773 16.832 148.792C16.8213 148.333 16.816 147.88 16.816 147.432C16.816 146.973 16.8213 146.509 16.832 146.04C16.864 145.08 17.0773 144.275 17.472 143.624C17.8773 142.963 18.432 142.467 19.136 142.136C19.8507 141.805 20.6827 141.64 21.632 141.64C22.5707 141.64 23.392 141.805 24.096 142.136C24.8107 142.467 25.3707 142.963 25.776 143.624C26.1813 144.275 26.3947 145.08 26.416 146.04C26.4373 146.509 26.448 146.973 26.448 147.432C26.448 147.88 26.4373 148.333 26.416 148.792C26.384 149.773 26.1707 150.589 25.776 151.24C25.3813 151.88 24.832 152.36 24.128 152.68C23.424 153 22.592 153.16 21.632 153.16ZM21.632 151.096C22.2507 151.096 22.7573 150.909 23.152 150.536C23.5573 150.152 23.7707 149.544 23.792 148.712C23.8133 148.243 23.824 147.805 23.824 147.4C23.824 146.984 23.8133 146.547 23.792 146.088C23.7813 145.533 23.68 145.08 23.488 144.728C23.296 144.376 23.04 144.12 22.72 143.96C22.4107 143.789 22.048 143.704 21.632 143.704C21.216 143.704 20.848 143.789 20.528 143.96C20.208 144.12 19.952 144.376 19.76 144.728C19.5787 145.08 19.4773 145.533 19.456 146.088C19.4453 146.547 19.44 146.984 19.44 147.4C19.44 147.805 19.4453 148.243 19.456 148.712C19.488 149.544 19.7013 150.152 20.096 150.536C20.4907 150.909 21.0027 151.096 21.632 151.096ZM32.466 153.16C31.442 153.16 30.5833 153.011 29.89 152.712C29.2073 152.413 28.69 152.024 28.338 151.544C27.986 151.064 27.7993 150.552 27.778 150.008C27.778 149.923 27.81 149.848 27.874 149.784C27.938 149.709 28.018 149.672 28.114 149.672H29.826C29.9647 149.672 30.0713 149.704 30.146 149.768C30.2207 149.821 30.29 149.891 30.354 149.976C30.4287 150.157 30.546 150.333 30.706 150.504C30.8767 150.675 31.106 150.819 31.394 150.936C31.682 151.043 32.0393 151.096 32.466 151.096C33.1593 151.096 33.6767 150.984 34.018 150.76C34.37 150.536 34.546 150.232 34.546 149.848C34.546 149.571 34.45 149.347 34.258 149.176C34.0767 149.005 33.7833 148.851 33.378 148.712C32.9833 148.573 32.4553 148.424 31.794 148.264C30.994 148.093 30.3113 147.875 29.746 147.608C29.1913 147.331 28.77 146.979 28.482 146.552C28.2047 146.115 28.066 145.576 28.066 144.936C28.066 144.296 28.242 143.731 28.594 143.24C28.946 142.739 29.442 142.349 30.082 142.072C30.722 141.784 31.4847 141.64 32.37 141.64C33.0847 141.64 33.714 141.736 34.258 141.928C34.8127 142.12 35.2713 142.371 35.634 142.68C36.0073 142.989 36.29 143.32 36.482 143.672C36.674 144.024 36.7753 144.365 36.786 144.696C36.786 144.781 36.754 144.861 36.69 144.936C36.626 145 36.546 145.032 36.45 145.032H34.658C34.5513 145.032 34.4553 145.011 34.37 144.968C34.2847 144.925 34.2153 144.851 34.162 144.744C34.098 144.467 33.906 144.227 33.586 144.024C33.2767 143.811 32.8713 143.704 32.37 143.704C31.8473 143.704 31.4313 143.8 31.122 143.992C30.8233 144.184 30.674 144.477 30.674 144.872C30.674 145.128 30.7487 145.347 30.898 145.528C31.058 145.699 31.3193 145.853 31.682 145.992C32.0553 146.12 32.546 146.264 33.154 146.424C34.0927 146.616 34.8553 146.845 35.442 147.112C36.0287 147.379 36.4607 147.725 36.738 148.152C37.0153 148.568 37.154 149.096 37.154 149.736C37.154 150.451 36.9513 151.064 36.546 151.576C36.1513 152.088 35.602 152.483 34.898 152.76C34.2047 153.027 33.394 153.16 32.466 153.16ZM42.9035 153.16C41.8795 153.16 41.0208 153.011 40.3275 152.712C39.6448 152.413 39.1275 152.024 38.7755 151.544C38.4235 151.064 38.2368 150.552 38.2155 150.008C38.2155 149.923 38.2475 149.848 38.3115 149.784C38.3755 149.709 38.4555 149.672 38.5515 149.672H40.2635C40.4022 149.672 40.5088 149.704 40.5835 149.768C40.6582 149.821 40.7275 149.891 40.7915 149.976C40.8662 150.157 40.9835 150.333 41.1435 150.504C41.3142 150.675 41.5435 150.819 41.8315 150.936C42.1195 151.043 42.4768 151.096 42.9035 151.096C43.5968 151.096 44.1142 150.984 44.4555 150.76C44.8075 150.536 44.9835 150.232 44.9835 149.848C44.9835 149.571 44.8875 149.347 44.6955 149.176C44.5142 149.005 44.2208 148.851 43.8155 148.712C43.4208 148.573 42.8928 148.424 42.2315 148.264C41.4315 148.093 40.7488 147.875 40.1835 147.608C39.6288 147.331 39.2075 146.979 38.9195 146.552C38.6422 146.115 38.5035 145.576 38.5035 144.936C38.5035 144.296 38.6795 143.731 39.0315 143.24C39.3835 142.739 39.8795 142.349 40.5195 142.072C41.1595 141.784 41.9222 141.64 42.8075 141.64C43.5222 141.64 44.1515 141.736 44.6955 141.928C45.2502 142.12 45.7088 142.371 46.0715 142.68C46.4448 142.989 46.7275 143.32 46.9195 143.672C47.1115 144.024 47.2128 144.365 47.2235 144.696C47.2235 144.781 47.1915 144.861 47.1275 144.936C47.0635 145 46.9835 145.032 46.8875 145.032H45.0955C44.9888 145.032 44.8928 145.011 44.8075 144.968C44.7222 144.925 44.6528 144.851 44.5995 144.744C44.5355 144.467 44.3435 144.227 44.0235 144.024C43.7142 143.811 43.3088 143.704 42.8075 143.704C42.2848 143.704 41.8688 143.8 41.5595 143.992C41.2608 144.184 41.1115 144.477 41.1115 144.872C41.1115 145.128 41.1862 145.347 41.3355 145.528C41.4955 145.699 41.7568 145.853 42.1195 145.992C42.4928 146.12 42.9835 146.264 43.5915 146.424C44.5302 146.616 45.2928 146.845 45.8795 147.112C46.4662 147.379 46.8982 147.725 47.1755 148.152C47.4528 148.568 47.5915 149.096 47.5915 149.736C47.5915 150.451 47.3888 151.064 46.9835 151.576C46.5888 152.088 46.0395 152.483 45.3355 152.76C44.6422 153.027 43.8315 153.16 42.9035 153.16ZM51.778 153C51.682 153 51.602 152.968 51.538 152.904C51.474 152.829 51.442 152.749 51.442 152.664C51.442 152.611 51.4473 152.563 51.458 152.52L55.266 142.232C55.298 142.115 55.362 142.013 55.458 141.928C55.554 141.843 55.6873 141.8 55.858 141.8H57.906C58.0767 141.8 58.21 141.843 58.306 141.928C58.402 142.013 58.466 142.115 58.498 142.232L62.306 152.52C62.3167 152.563 62.322 152.611 62.322 152.664C62.322 152.749 62.29 152.829 62.226 152.904C62.162 152.968 62.082 153 61.986 153H60.322C60.162 153 60.0447 152.963 59.97 152.888C59.8953 152.813 59.8473 152.744 59.826 152.68L59.138 150.888H54.626L53.938 152.68C53.9167 152.744 53.8687 152.813 53.794 152.888C53.7193 152.963 53.602 153 53.442 153H51.778ZM55.218 148.824H58.53L56.882 144.216L55.218 148.824ZM67.3183 156.52C66.5289 156.52 65.8729 156.413 65.3503 156.2C64.8276 155.997 64.4116 155.747 64.1023 155.448C63.8036 155.16 63.5903 154.872 63.4622 154.584C63.3343 154.296 63.2649 154.072 63.2543 153.912C63.2436 153.795 63.2809 153.699 63.3663 153.624C63.4516 153.549 63.5476 153.512 63.6543 153.512H65.3663C65.4623 153.512 65.5423 153.533 65.6063 153.576C65.6809 153.629 65.7396 153.715 65.7823 153.832C65.8356 153.96 65.9103 154.093 66.0063 154.232C66.1023 154.381 66.2463 154.504 66.4383 154.6C66.6409 154.696 66.9076 154.744 67.2383 154.744C67.6116 154.744 67.9209 154.691 68.1663 154.584C68.4116 154.477 68.5929 154.296 68.7103 154.04C68.8383 153.784 68.9023 153.437 68.9023 153V151.928C68.6463 152.205 68.3209 152.435 67.9263 152.616C67.5423 152.797 67.0676 152.888 66.5023 152.888C65.9476 152.888 65.4569 152.803 65.0303 152.632C64.6143 152.451 64.2676 152.2 63.9903 151.88C63.7129 151.549 63.4996 151.155 63.3503 150.696C63.2009 150.237 63.1156 149.72 63.0943 149.144C63.0836 148.856 63.0836 148.573 63.0943 148.296C63.1156 147.741 63.2009 147.235 63.3503 146.776C63.4996 146.317 63.7129 145.923 63.9903 145.592C64.2676 145.251 64.6143 144.989 65.0303 144.808C65.4569 144.616 65.9476 144.52 66.5023 144.52C67.0889 144.52 67.5903 144.632 68.0063 144.856C68.4223 145.08 68.7636 145.357 69.0303 145.688V145.08C69.0303 144.973 69.0676 144.883 69.1423 144.808C69.2169 144.723 69.3076 144.68 69.4143 144.68H70.9823C71.0889 144.68 71.1796 144.723 71.2543 144.808C71.3396 144.883 71.3823 144.973 71.3823 145.08L71.3983 152.776C71.3983 153.576 71.2436 154.253 70.9343 154.808C70.6249 155.363 70.1663 155.784 69.5583 156.072C68.9609 156.371 68.2143 156.52 67.3183 156.52ZM67.2383 151.016C67.6223 151.016 67.9316 150.931 68.1663 150.76C68.4116 150.579 68.5929 150.355 68.7103 150.088C68.8276 149.811 68.8916 149.523 68.9023 149.224C68.9129 149.107 68.9183 148.941 68.9183 148.728C68.9183 148.504 68.9129 148.333 68.9023 148.216C68.8916 147.917 68.8276 147.635 68.7103 147.368C68.5929 147.091 68.4116 146.867 68.1663 146.696C67.9316 146.525 67.6223 146.44 67.2383 146.44C66.8329 146.44 66.5129 146.531 66.2783 146.712C66.0436 146.883 65.8729 147.112 65.7663 147.4C65.6596 147.688 65.5956 148.003 65.5743 148.344C65.5636 148.6 65.5636 148.851 65.5743 149.096C65.5956 149.448 65.6596 149.768 65.7663 150.056C65.8729 150.344 66.0436 150.579 66.2783 150.76C66.5129 150.931 66.8329 151.016 67.2383 151.016ZM77.1263 153.16C75.8996 153.16 74.9236 152.819 74.1983 152.136C73.4836 151.453 73.1049 150.461 73.0623 149.16C73.0623 149.075 73.0623 148.963 73.0623 148.824C73.0623 148.675 73.0623 148.557 73.0623 148.472C73.1049 147.651 73.2916 146.947 73.6223 146.36C73.9529 145.763 74.4169 145.309 75.0143 145C75.6116 144.68 76.3103 144.52 77.1102 144.52C78.0063 144.52 78.7529 144.707 79.3503 145.08C79.9583 145.443 80.4116 145.944 80.7103 146.584C81.0196 147.213 81.1743 147.939 81.1743 148.76V149.128C81.1743 149.235 81.1316 149.325 81.0463 149.4C80.9716 149.475 80.8809 149.512 80.7743 149.512H75.5423C75.5423 149.523 75.5423 149.544 75.5423 149.576C75.5423 149.597 75.5423 149.619 75.5423 149.64C75.5529 149.981 75.6169 150.296 75.7343 150.584C75.8623 150.861 76.0383 151.085 76.2623 151.256C76.4969 151.427 76.7743 151.512 77.0943 151.512C77.3609 151.512 77.5796 151.475 77.7503 151.4C77.9209 151.325 78.0596 151.235 78.1663 151.128C78.2836 151.021 78.3689 150.931 78.4223 150.856C78.5183 150.749 78.5929 150.685 78.6463 150.664C78.7103 150.632 78.8063 150.616 78.9343 150.616H80.5983C80.7049 150.616 80.7903 150.648 80.8542 150.712C80.9289 150.765 80.9609 150.845 80.9503 150.952C80.9396 151.123 80.8489 151.336 80.6783 151.592C80.5183 151.837 80.2783 152.083 79.9583 152.328C79.6383 152.563 79.2383 152.76 78.7583 152.92C78.2889 153.08 77.7449 153.16 77.1263 153.16ZM75.5423 148.056H78.6783V148.024C78.6783 147.64 78.6143 147.309 78.4863 147.032C78.3689 146.744 78.1929 146.52 77.9583 146.36C77.7236 146.2 77.4409 146.12 77.1102 146.12C76.7796 146.12 76.4969 146.2 76.2623 146.36C76.0276 146.52 75.8463 146.744 75.7183 147.032C75.6009 147.309 75.5423 147.64 75.5423 148.024V148.056ZM83.1576 153C83.051 153 82.9603 152.963 82.8856 152.888C82.811 152.813 82.7736 152.717 82.7736 152.6V145.08C82.7736 144.963 82.811 144.867 82.8856 144.792C82.9603 144.717 83.051 144.68 83.1576 144.68H84.7256C84.843 144.68 84.939 144.717 85.0136 144.792C85.0883 144.867 85.1256 144.963 85.1256 145.08V145.704C85.403 145.363 85.7603 145.08 86.1976 144.856C86.635 144.632 87.1683 144.52 87.7976 144.52C88.427 144.52 88.9763 144.664 89.4456 144.952C89.9256 145.229 90.299 145.64 90.5656 146.184C90.843 146.717 90.9816 147.368 90.9816 148.136V152.6C90.9816 152.717 90.939 152.813 90.8536 152.888C90.779 152.963 90.6883 153 90.5816 153H88.8856C88.7683 153 88.6723 152.963 88.5976 152.888C88.523 152.813 88.4856 152.717 88.4856 152.6V148.232C88.4856 147.667 88.347 147.229 88.0696 146.92C87.803 146.6 87.4083 146.44 86.8856 146.44C86.3843 146.44 85.9843 146.6 85.6856 146.92C85.387 147.229 85.2376 147.667 85.2376 148.232V152.6C85.2376 152.717 85.2003 152.813 85.1256 152.888C85.051 152.963 84.9603 153 84.8536 153H83.1576ZM96.5946 153.16C95.816 153.16 95.128 153.016 94.5306 152.728C93.944 152.44 93.48 152.024 93.1386 151.48C92.7973 150.925 92.6106 150.264 92.5786 149.496C92.568 149.325 92.5626 149.112 92.5626 148.856C92.5626 148.589 92.568 148.371 92.5786 148.2C92.6106 147.421 92.792 146.76 93.1226 146.216C93.464 145.661 93.9333 145.24 94.5306 144.952C95.128 144.664 95.816 144.52 96.5946 144.52C97.3093 144.52 97.9173 144.621 98.4186 144.824C98.92 145.016 99.3306 145.261 99.6506 145.56C99.9706 145.859 100.205 146.173 100.355 146.504C100.515 146.824 100.6 147.107 100.611 147.352C100.621 147.459 100.584 147.555 100.499 147.64C100.424 147.715 100.333 147.752 100.227 147.752H98.5146C98.408 147.752 98.3226 147.725 98.2586 147.672C98.2053 147.608 98.152 147.523 98.0986 147.416C97.9493 147.043 97.7573 146.776 97.5226 146.616C97.288 146.456 96.9946 146.376 96.6426 146.376C96.1626 146.376 95.784 146.531 95.5066 146.84C95.2293 147.149 95.08 147.629 95.0586 148.28C95.048 148.696 95.048 149.075 95.0586 149.416C95.0906 150.077 95.24 150.557 95.5066 150.856C95.784 151.155 96.1626 151.304 96.6426 151.304C97.016 151.304 97.3146 151.224 97.5386 151.064C97.7626 150.904 97.9493 150.637 98.0986 150.264C98.1413 150.157 98.1946 150.077 98.2586 150.024C98.3226 149.96 98.408 149.928 98.5146 149.928H100.227C100.333 149.928 100.424 149.971 100.499 150.056C100.584 150.131 100.621 150.221 100.611 150.328C100.6 150.509 100.547 150.723 100.451 150.968C100.365 151.213 100.221 151.464 100.019 151.72C99.8266 151.976 99.576 152.216 99.2666 152.44C98.9573 152.653 98.5786 152.829 98.1306 152.968C97.6933 153.096 97.1813 153.16 96.5946 153.16ZM103.419 156.04C103.333 156.04 103.253 156.008 103.179 155.944C103.115 155.88 103.083 155.8 103.083 155.704C103.083 155.683 103.088 155.651 103.099 155.608C103.109 155.576 103.125 155.533 103.147 155.48L104.395 152.488L101.323 145.24C101.291 145.155 101.275 145.085 101.275 145.032C101.285 144.936 101.323 144.856 101.387 144.792C101.451 144.717 101.531 144.68 101.627 144.68H103.179C103.317 144.68 103.419 144.717 103.483 144.792C103.547 144.856 103.595 144.925 103.627 145L105.611 149.96L107.643 145C107.685 144.915 107.739 144.84 107.803 144.776C107.867 144.712 107.968 144.68 108.107 144.68H109.627C109.723 144.68 109.803 144.717 109.867 144.792C109.941 144.856 109.979 144.931 109.979 145.016C109.979 145.069 109.957 145.144 109.915 145.24L105.387 155.72C105.355 155.805 105.301 155.88 105.227 155.944C105.163 156.008 105.061 156.04 104.923 156.04H103.419Z" fill="#1D2328"/>
<mask id="mask0_217_2013" style="mask-type:alpha" maskUnits="userSpaceOnUse" x="0" y="0" width="202" height="191">
<rect width="202" height="191" rx="16" fill="#5487EB"/>
</mask>
<g mask="url(#mask0_217_2013)">
<circle cx="168.5" cy="42.5" r="52.5" transform="rotate(180 168.5 42.5)" fill="url(#paint0_linear_217_2013)"/>
<g filter="url(#filter0_b_217_2013)">
<circle cx="121.5" cy="40.5" r="26.5" transform="rotate(180 121.5 40.5)" fill="url(#paint1_linear_217_2013)" fill-opacity="0.32"/>
</g>
<circle cx="29" cy="29" r="29" transform="matrix(1 0 0 -1 -11 46)" fill="url(#paint2_linear_217_2013)"/>
<g filter="url(#filter1_b_217_2013)">
<circle cx="14.5" cy="14.5" r="14.5" transform="matrix(1 0 0 -1 21 31)" fill="url(#paint3_linear_217_2013)" fill-opacity="0.32"/>
</g>
</g>
<defs>
<filter id="filter0_b_217_2013" x="90.9998" y="10" width="61" height="61" filterUnits="userSpaceOnUse" color-interpolation-filters="sRGB">
<feFlood flood-opacity="0" result="BackgroundImageFix"/>
<feGaussianBlur in="BackgroundImageFix" stdDeviation="2"/>
<feComposite in2="SourceAlpha" operator="in" result="effect1_backgroundBlur_217_2013"/>
<feBlend mode="normal" in="SourceGraphic" in2="effect1_backgroundBlur_217_2013" result="shape"/>
</filter>
<filter id="filter1_b_217_2013" x="17" y="-2" width="37" height="37" filterUnits="userSpaceOnUse" color-interpolation-filters="sRGB">
<feFlood flood-opacity="0" result="BackgroundImageFix"/>
<feGaussianBlur in="BackgroundImageFix" stdDeviation="2"/>
<feComposite in2="SourceAlpha" operator="in" result="effect1_backgroundBlur_217_2013"/>
<feBlend mode="normal" in="SourceGraphic" in2="effect1_backgroundBlur_217_2013" result="shape"/>
</filter>
<linearGradient id="paint0_linear_217_2013" x1="154.099" y1="-9.99999" x2="249.077" y2="24.4799" gradientUnits="userSpaceOnUse">
<stop stop-color="white" stop-opacity="0"/>
<stop offset="1" stop-color="#0198FC"/>
</linearGradient>
<linearGradient id="paint1_linear_217_2013" x1="91.3884" y1="11.4597" x2="152.864" y2="51.5079" gradientUnits="userSpaceOnUse">
<stop stop-color="white" stop-opacity="0.08"/>
<stop offset="0.626767" stop-color="white"/>
<stop offset="1" stop-color="white"/>
</linearGradient>
<linearGradient id="paint2_linear_217_2013" x1="21.0451" y1="3.82857e-06" x2="73.5092" y2="19.046" gradientUnits="userSpaceOnUse">
<stop stop-color="white" stop-opacity="0"/>
<stop offset="1" stop-color="#0198FC"/>
</linearGradient>
<linearGradient id="paint3_linear_217_2013" x1="-1.97601" y1="-1.38998" x2="31.6616" y2="20.5232" gradientUnits="userSpaceOnUse">
<stop stop-color="white" stop-opacity="0.08"/>
<stop offset="0.626767" stop-color="white"/>
<stop offset="1" stop-color="white"/>
</linearGradient>
</defs>
</svg>
